# xmcd
#
# Track frame offsets: 
#        182
#        22775
#        51515
#        73262
#        97130
#        120505
#        146420
#        182350
#        214735
#        241520
#        281700
#        302690
#
# Disc length: 4478 seconds
#
# Revision: 1
# Processed by: cddbd v1.5.2PL0 Copyright (c) Steve Scherf et al.
# Submitted via: ExactAudioCopy v0.99pb4
#
DISCID=a6117c0c
DTITLE=Buddy Guy - Buddy Guy And Friends [CD2]
DYEAR=1900
DGENRE=blues
TTITLE0=I Didn't Know My Mother Had A Son Like Me
TTITLE1=Have You Ever Been Lonesome
TTITLE2=Me and My Guitar
TTITLE3=Feeling Sexy
TTITLE4=Guitar Shorty - You Gave Me The Blues
TTITLE5=Texas Flood
TTITLE6=Jimmy Dawkins - Have A Little Mercy
TTITLE7=Garbage Man Blues
TTITLE8=Guitar Shorty - Shorty Jumps In
TTITLE9=Ice Around My Heart
TTITLE10=You Can Make It If You Try
TTITLE11=Breaking Out On Top
EXTD=
EXTT0=
EXTT1=
EXTT2=
EXTT3=w. Phil Guy
EXTT4=
EXTT5=w. Phil Guy
EXTT6=
EXTT7=w. Phil Guy
EXTT8=
EXTT9=w. Phil Guy
EXTT10=
EXTT11=w. Phil Guy
PLAYORDER=
